# xmcd
#
# Track frame offsets: 
#        150
#        9784
#        30980
#        40076
#        48452
#        60945
#        72436
#        77856
#        103230
#        130163
#        134078
#        145469
#        158769
#        194139
#        202676
#
# Disc length: 3148 seconds
#
# Revision: 0
# Processed by: cddbd v1.5.2PL0 Copyright (c) Steve Scherf et al.
# Submitted via: ExactAudioCopyFreeDBPlugin 1.0
#
DISCID=cf0c4a0f
DTITLE=The Naked Trucker And T-Bones - Live At The Troubadour
DYEAR=2007
DGENRE=Country
TTITLE0=Ballad Of The Naked Trucker
TTITLE1=The Meeting
TTITLE2=Where's My Beer Intro
TTITLE3=Where's My Beer
TTITLE4=Square Dance Is Hip-Hop
TTITLE5=You Don't Know (Jack Shit)
TTITLE6=Pathos-Bathos
TTITLE7=My Daddy Is An Astronaut
TTITLE8=Jammin' Gears And Mud Flaps
TTITLE9=Long Beach (Gin And Juice Intro)
TTITLE10=Gin And Juice
TTITLE11=You Do The Driving And I'll Do The Drinking
TTITLE12=Hobo Holiday (2 Dollars)
TTITLE13=Stay Right Here (And Go)
TTITLE14=My American Dream
EXTD=
EXTT0=
EXTT1=
EXTT2=
EXTT3=
EXTT4=
EXTT5=
EXTT6=
EXTT7=
EXTT8=
EXTT9=
EXTT10=
EXTT11=
EXTT12=
EXTT13=
EXTT14=
PLAYORDER=
